<svg height="73" viewBox="0 0 73 73" width="73" xmlns="http://www.w3.org/2000/svg"><g fill="none" fill-rule="nonzero"><rect fill="#fff" height="71" rx="14" stroke="#292832" stroke-width="2" width="71" x="1" y="1"/><g transform="translate(14 14)"><path d="m21.4666667 28.3666667h3.0666666v11.5h-3.0666666z" fill="#acabb1"/><circle cx="43.7" cy="10.733333" fill="#ff5023" r="1.533333"/><circle cx="41.4" cy="3.066667" fill="#ff5023" r="1.533333"/><circle cx="41.4" cy="18.4" fill="#ff5023" r="1.533333"/><path d="m24.5333333 34.4003333v3.0896667c-1.0196666.1022222-2.047.1022222-3.0666666 0v-3.0896667c1.0179035.1328856 2.0487631.1328856 3.0666666 0z" fill="#898890"/><path d="m31.4333333 41.4v1.5333333c-.002526.8457881-.6875452 1.5308074-1.5333333 1.5333334h-13.8c-.8457881-.002526-1.5308073-.6875453-1.5333333-1.5333334v-1.5333333c.002526-.8457881.6875452-1.5308073 1.5333333-1.5333333h13.8c.8457881.002526 1.5308073.6875452 1.5333333 1.5333333z" fill="#898890"/><path d="m24.5333333 28.3666667v2.162c-1.0139405.1840185-2.0527261.1840185-3.0666666 0v-2.162z" fill="#898890"/><circle cx="4.6" cy="3.066667" fill="#ff5023" r="1.533333"/><circle cx="4.6" cy="18.4" fill="#ff5023" r="1.533333"/><circle cx="2.3" cy="10.733333" fill="#ff5023" r="1.533333"/><path d="m32.9666667 18.4v1.5333333c-.002526.8457881-.6875453 1.5308074-1.5333334 1.5333334h-16.8666666c-.8457881-.002526-1.5308074-.6875453-1.5333334-1.5333334v-1.5333333c.002526-.8457881.6875453-1.5308073 1.5333334-1.5333333h16.8666666c.8457881.002526 1.5308074.6875452 1.5333334 1.5333333z" fill="#898890"/><path d="m31.4333333 8.43333333v8.43333337h-16.8666666v-8.43333337c0-.26066666.0153333-.51366666.0383333-.76666666s.0536667-.51366667.0996667-.76666667c.0977533-.52356826.2440517-1.03689563.437-1.53333333.0992728-.26234579.2144876-.5183787.345-.76666667.1359235-.26403344.2869517-.52001345.4523333-.76666667 1.55283-2.39090337 4.2100879-3.83359607 7.061-3.83359607s5.50817 1.4426927 7.061 3.83359607c.1653816.24665322.3164098.50263323.4523333.76666667.1305124.24828797.2457272.50432088.345.76666667.1929483.4964377.3392467 1.00976507.437 1.53333333.046.253.0766667.506.0996667.76666667.023.26066666.0383333.506.0383333.76666666z" fill="#ff9811"/><path d="m31.395 21.4666667c-.043895.5186112-.1362991 1.0319671-.276 1.5333333-1.0268232 3.6315035-4.3412848 6.1387351-8.1151667 6.1387351-3.7738818 0-7.0883434-2.5072316-8.1151666-6.1387351-.1422579-.501125-.2372289-1.0144816-.2836667-1.5333333z" fill="#ee8700"/><path d="m31.395 21.4666667c-.043895.5186112-.1362991 1.0319671-.276 1.5333333h-16.2303333c-.1422579-.501125-.2372289-1.0144816-.2836667-1.5333333z" fill="#cc7400"/><path d="m38.249 22.2026667c.001272.0537806-.00129.1075835-.0076667.161-.7959938 7.1947972-6.5067523 12.8576466-13.708 13.593-1.0196666.1022222-2.047.1022222-3.0666666 0-7.2012477-.7353534-12.9120062-6.3982028-13.70800003-13.593-.0400961-.4282383.10289209-.8534459.39359502-1.1704436s.70197052-.4961795 1.13207164-.4932231c.79324237.0068499 1.45250747.6131088 1.52566667 1.403.6569721 5.6103973 5.0531348 10.0508378 10.6566667 10.764 1.0179035.1328856 2.0487631.1328856 3.0666666 0 5.6035319-.7131622 9.9996946-5.1536027 10.6566667-10.764.0731592-.7898912.7324243-1.3961501 1.5256667-1.403.8365155-.0038826 1.5203176.6662434 1.5333333 1.5026667z" fill="#c6c5ca"/><g fill="#ee8700" transform="translate(14.566667 3.833333)"><path d="m10.7333333 9.2h6.1333334v1.5333333h-6.1333334z"/><path d="m10.7333333 6.13333333h6.1333334v1.53333334h-6.1333334z"/><path d="m16.8666667 4.6h-6.1333334v-1.53333333h5.9953334c.046.253.0766666.506.0996666.76666666.023.26066667.0383334.506.0383334.76666667z"/><path d="m16.2916667 1.53333333h-5.5583334v-1.53333333h4.761c.1653816.24665322.3164098.50263323.4523334.76666667.1305124.24828797.2457272.50432087.345.76666666z"/><path d="m0 9.2h6.13333333v1.5333333h-6.13333333z"/><path d="m0 6.13333333h6.13333333v1.53333334h-6.13333333z"/><path d="m6.13333333 3.06666667v1.53333333h-6.13333333c0-.26066667.01533333-.51366667.03833333-.76666667s.05366667-.51366666.09966667-.76666666z"/><path d="m6.13333333 0v1.53333333h-5.55833333c.0992728-.26234579.21448761-.51837869.345-.76666666.13592356-.26403344.28695177-.52001345.45233333-.76666667z"/></g><path d="m36.8 8.43333333h-3.0666667v-1.53333333h2.7492667l2.0753667-2.07536667 1.0840666 1.08406667-2.3 2.3c-.1437444.14378785-.3387173.22458991-.5420333.22463333z" fill="#ffa733"/><path d="m38.5579667 16.6420333-2.0753667-2.0753666h-2.7492667v-1.5333334h3.0666667c.203316.0000435.3982889.0808455.5420333.2246334l2.3 2.3z" fill="#ffa733"/><path d="m33.7333333 9.96666667h6.1333334v1.53333333h-6.1333334z" fill="#ffa733"/><path d="m12.2666667 8.43333333h-3.0666667c-.20331602-.00004342-.39828891-.08084548-.54203333-.22463333l-2.3-2.3 1.08406666-1.08406667 2.07536667 2.07536667h2.7492667z" fill="#ffa733"/><path d="m7.44203333 16.6420333-1.08406666-1.0840666 2.3-2.3c.14374442-.1437879.33871731-.2245899.54203333-.2246334h3.0666667v1.5333334h-2.7492667z" fill="#ffa733"/><path d="m6.13333333 9.96666667h6.13333337v1.53333333h-6.13333337z" fill="#ffa733"/><g fill="#ff9811"><path d="m41.4 5.36666667c-1.2702549 0-2.3-1.02974508-2.3-2.3 0-1.27025493 1.0297451-2.3 2.3-2.3s2.3 1.02974507 2.3 2.3c0 1.27025492-1.0297451 2.3-2.3 2.3zm0-3.06666667c-.4234183 0-.7666667.34324836-.7666667.76666667 0 .4234183.3432484.76666666.7666667.76666666s.7666667-.34324836.7666667-.76666666c0-.42341831-.3432484-.76666667-.7666667-.76666667z"/><path d="m43.7 13.0333333c-1.2702549 0-2.3-1.029745-2.3-2.3 0-1.27025489 1.0297451-2.29999997 2.3-2.29999997s2.3 1.02974508 2.3 2.29999997c0 1.270255-1.0297451 2.3-2.3 2.3zm0-3.06666663c-.4234183 0-.7666667.34324833-.7666667.76666663s.3432484.7666667.7666667.7666667.7666667-.3432484.7666667-.7666667-.3432484-.76666663-.7666667-.76666663z"/><path d="m41.4 20.7c-1.2702549 0-2.3-1.0297451-2.3-2.3s1.0297451-2.3 2.3-2.3 2.3 1.0297451 2.3 2.3-1.0297451 2.3-2.3 2.3zm0-3.0666667c-.4234183 0-.7666667.3432484-.7666667.7666667s.3432484.7666667.7666667.7666667.7666667-.3432484.7666667-.7666667-.3432484-.7666667-.7666667-.7666667z"/><path d="m4.6 5.36666667c-1.27025492 0-2.3-1.02974508-2.3-2.3 0-1.27025493 1.02974508-2.3 2.3-2.3s2.3 1.02974507 2.3 2.3c0 1.27025492-1.02974508 2.3-2.3 2.3zm0-3.06666667c-.42341831 0-.76666667.34324836-.76666667.76666667 0 .4234183.34324836.76666666.76666667.76666666s.76666667-.34324836.76666667-.76666666c0-.42341831-.34324836-.76666667-.76666667-.76666667z"/><path d="m2.3 13.0333333c-1.27025492 0-2.3-1.029745-2.3-2.3 0-1.27025489 1.02974508-2.29999997 2.3-2.29999997s2.3 1.02974508 2.3 2.29999997c0 1.270255-1.02974508 2.3-2.3 2.3zm0-3.06666663c-.42341831 0-.76666667.34324833-.76666667.76666663s.34324836.7666667.76666667.7666667.76666667-.3432484.76666667-.7666667-.34324836-.76666663-.76666667-.76666663z"/><path d="m4.6 20.7c-1.27025492 0-2.3-1.0297451-2.3-2.3s1.02974508-2.3 2.3-2.3 2.3 1.0297451 2.3 2.3-1.02974508 2.3-2.3 2.3zm0-3.0666667c-.42341831 0-.76666667.3432484-.76666667.7666667s.34324836.7666667.76666667.7666667.76666667-.3432484.76666667-.7666667-.34324836-.7666667-.76666667-.7666667z"/></g><path d="m21.2113667 26.5266667c-.6603739-.2330766-1.2684016-.5938815-1.7894-1.0618334l1.0227333-1.1423333c.371732.3341206.8057926.5915347 1.2772667.7574667z" fill="#ffc477"/><path d="m23 26.8333333v-1.5333333c1.3691442-.0027924 2.6337661-.7326066 3.3212-1.9166667l1.3271.7666667c-.9618845 1.6575346-2.7318902 2.6793093-4.6483 2.6833333z" fill="#ffc477"/></g></g></svg>